<?xml version="1.0" encoding="UTF-8" standalone="no"?>
<svg
   width="101.30844"
   height="143.80946"
   viewBox="0 0 101.30844 143.80946"
   fill="none"
   version="1.1"
   id="svg8"
   sodipodi:docname="VS_Lockate.svg"
   inkscape:version="1.1 (ce6663b3b7, 2021-05-25)"
   xmlns:inkscape="http://www.inkscape.org/namespaces/inkscape"
   xmlns:sodipodi="http://sodipodi.sourceforge.net/DTD/sodipodi-0.dtd"
   xmlns:xlink="http://www.w3.org/1999/xlink"
   xmlns="http://www.w3.org/2000/svg"
   xmlns:svg="http://www.w3.org/2000/svg">
  <defs
     id="defs12">
    <linearGradient
       inkscape:collect="always"
       id="linearGradient2147-3">
      <stop
         style="stop-color:#b4261c;stop-opacity:1"
         offset="0"
         id="stop2143" />
      <stop
         style="stop-color:#da251c;stop-opacity:1"
         offset="1"
         id="stop2145" />
    </linearGradient>
    <filter
       style="color-interpolation-filters:sRGB"
       inkscape:label="Drop Shadow"
       id="filter15464"
       x="-0.04575134"
       y="-0.26750674"
       width="1.0915027"
       height="1.5350135">
      <feFlood
         flood-opacity="0.498039"
         flood-color="rgb(0,0,0)"
         result="flood"
         id="feFlood15454" />
      <feComposite
         in="flood"
         in2="SourceGraphic"
         operator="in"
         result="composite1"
         id="feComposite15456" />
      <feGaussianBlur
         in="composite1"
         stdDeviation="1.3"
         result="blur"
         id="feGaussianBlur15458" />
      <feOffset
         dx="0"
         dy="0"
         result="offset"
         id="feOffset15460" />
      <feComposite
         in="SourceGraphic"
         in2="offset"
         operator="over"
         result="composite2"
         id="feComposite15462" />
    </filter>
    <filter
       style="color-interpolation-filters:sRGB"
       inkscape:label="Drop Shadow"
       id="filter15524"
       x="-0.046380947"
       y="-0.14005771"
       width="1.0927619"
       height="1.2801154">
      <feFlood
         flood-opacity="0.498039"
         flood-color="rgb(0,0,0)"
         result="flood"
         id="feFlood15514" />
      <feComposite
         in="flood"
         in2="SourceGraphic"
         operator="in"
         result="composite1"
         id="feComposite15516" />
      <feGaussianBlur
         in="composite1"
         stdDeviation="1.3"
         result="blur"
         id="feGaussianBlur15518" />
      <feOffset
         dx="0"
         dy="0"
         result="offset"
         id="feOffset15520" />
      <feComposite
         in="SourceGraphic"
         in2="offset"
         operator="over"
         result="composite2"
         id="feComposite15522" />
    </filter>
    <linearGradient
       inkscape:collect="always"
       xlink:href="#linearGradient2147-3"
       id="linearGradient1491"
       x1="50.96294"
       y1="-2.8421748"
       x2="50.138222"
       y2="141.24632"
       gradientUnits="userSpaceOnUse"
       gradientTransform="translate(0.51599884,0.94308404)" />
  </defs>
  <sodipodi:namedview
     id="namedview10"
     pagecolor="#ffffff"
     bordercolor="#666666"
     borderopacity="1.0"
     inkscape:pageshadow="2"
     inkscape:pageopacity="0.0"
     inkscape:pagecheckerboard="0"
     showgrid="false"
     fit-margin-top="0"
     fit-margin-left="0"
     fit-margin-right="0"
     fit-margin-bottom="0"
     inkscape:zoom="4.3643558"
     inkscape:cx="48.919018"
     inkscape:cy="82.600965"
     inkscape:window-width="1578"
     inkscape:window-height="848"
     inkscape:window-x="172"
     inkscape:window-y="127"
     inkscape:window-maximized="0"
     inkscape:current-layer="svg8" />
  <path
     id="path851"
     style="opacity:0.999;fill:url(#linearGradient1491);stroke:#ffffff;stroke-width:2;stroke-miterlimit:4;stroke-dasharray:none;stroke-opacity:1"
     d="m 100.30844,43.80825 c 0,38.870443 -44.006445,91.17083 -49.654219,98.38116 C 45.113114,135.13823 1.0000004,82.678694 1,43.80825 1.0000001,4.9378061 26.074198,-9.427186 51.586599,10.036746 77.876806,-10.387515 100.30844,4.9378065 100.30844,43.80825 Z"
     sodipodi:nodetypes="scscs" />
  <path
     d="m 88.262837,103.11939 c 0.697829,-2.39096 1.371888,-4.738665 2.05901,-7.147263 -0.03686,-0.03148 -1.715431,0.608788 -1.792431,0.683715 -0.605722,1.773607 -0.996755,3.147233 -1.575613,5.066328 l -0.107798,-0.3645 c -0.145518,-0.49203 -0.127473,-1.623582 0.03617,-2.267949 0.352826,-1.389308 1.391167,-2.847573 2.332714,-3.276105 1.115054,-0.507496 1.97333,-0.255527 2.174976,0.63854 0.124807,0.553388 0.03238,0.787447 -0.417813,1.058099 -0.903667,0.543256 -1.537263,1.463144 -1.395852,2.026567 0.173381,0.690808 1.497017,0.652208 2.277916,-0.06649 0.449132,-0.413321 0.707593,-0.810139 0.953202,-1.463479 0.21093,-0.561079 0.274916,-0.597346 1.076402,-0.610079 0.467671,-0.0077 0.514548,-0.02468 0.587237,-0.215845 0.143298,-0.3769 0.124473,-0.386706 -0.638895,-0.33252 l -0.717885,0.05099 -0.04381,-0.483158 c -0.05286,-0.582939 -0.313676,-1.153795 -0.630089,-1.3791 -1.189481,-0.81776 -2.458405,-0.315109 -3.308256,0.09348 -0.831141,0.407542 -1.682868,1.212056 -2.18502,2.063886 -0.322188,0.546566 -0.897715,1.247147 -1.573514,1.91544 -0.338786,0.335027 -0.705326,0.415158 -0.705326,0.154197 0,-0.08227 0.290523,-0.964183 0.645609,-1.95983 0.355085,-0.995666 0.633566,-1.822336 0.61885,-1.83705 -0.112101,-0.112103 -1.090715,-0.372604 -1.588097,-0.422744 -1.404216,-0.141558 -2.523706,0.235667 -3.45086,1.162826 -0.780588,0.780587 -1.271067,1.996699 -1.126989,2.794287 0.08062,0.446297 0.412898,0.890614 0.796184,1.064637 0.658936,0.29916 1.265532,0.13953 1.931458,-0.508304 l 0.377595,-0.367333 0.0504,0.268643 c 0.05529,0.294693 0.418761,0.652174 0.746819,0.734514 0.303202,0.0761 1.024451,-0.0187 1.334163,-0.17525 0.401312,-0.224732 0.713988,-0.466832 1.08234,-0.741347 v 1.060487 c -0.0064,1.03462 0.120255,1.57622 0.737218,2.34872 0.269322,0.26989 1.155033,0.93921 1.24287,0.93921 0.03235,0 0.121047,-0.2278 0.197114,-0.50624 z m 1.779946,-3.666641 c -0.02594,-0.06764 -0.0012,-0.233743 0.0548,-0.369151 0.114256,-0.275847 0.686916,-0.895655 0.965039,-1.044504 0.168486,-0.09021 0.177652,-0.08342 0.125754,0.09194 -0.290016,0.980293 -0.973857,1.76926 -1.145596,1.321719 z M 81.549537,99.11845 c -0.149224,-0.149222 -0.111122,-0.698629 0.0875,-1.261554 0.357728,-1.01391 1.337941,-1.964115 2.205048,-2.137531 l 0.265198,-0.053 c -0.325132,0.786475 -0.622881,1.649961 -0.90856,2.314544 -0.289941,0.553225 -1.0646,1.270844 -1.371855,1.270844 -0.07923,0 -0.204026,-0.05998 -0.277325,-0.133265 z m -8.747617,0.9954 c 1.190295,-0.317177 2.090426,-1.150601 2.833049,-2.623092 0.20151,-0.399564 0.366382,-0.764314 0.366382,-0.81056 0,-0.112743 0.13508,-0.157889 0.65554,-0.219106 0.569741,-0.06706 0.911713,0.125439 1.05142,0.59173 0.23283,0.777124 -0.173852,1.570033 -1.022378,1.993323 -0.418783,0.208908 -0.591203,0.244726 -1.313088,0.272747 -0.796977,0.0309 -0.832993,0.04018 -0.879658,0.226119 -0.06765,0.269523 0.14773,0.564549 0.457346,0.626469 0.386344,0.0773 1.725805,-0.0967 2.33458,-0.30321 0.855959,-0.290369 1.625822,-0.873413 1.937101,-1.467037 0.137378,-0.261985 0.234037,-1.357384 0.149497,-1.694219 -0.08165,-0.325307 -0.509732,-0.753025 -0.904616,-0.903826 -0.286113,-0.109271 -0.501019,-0.127218 -1.028953,-0.08591 -0.367019,0.0287 -0.779396,0.07347 -0.916392,0.09947 l -0.249085,0.04726 0.18414,-0.715858 c 0.101275,-0.393709 0.186027,-0.80106 0.188336,-0.905213 0.0038,-0.173665 -0.02098,-0.185461 -0.299545,-0.142324 -0.167059,0.02593 -0.630784,0.08581 -1.030495,0.13314 -0.399714,0.04736 -0.732502,0.09318 -0.739526,0.101818 -0.007,0.0086 -0.09358,0.38023 -0.192354,0.825714 -0.555364,2.504979 -1.131654,3.758373 -1.894476,4.120349 -0.357361,0.16958 -0.933699,0.16957 -1.175826,-1.9e-5 -0.411394,-0.288159 -0.543525,-1.266854 -0.287447,-2.12916 0.06986,-0.235227 0.115415,-0.438462 0.101247,-0.451645 -0.01418,-0.0132 -0.249988,0.04535 -0.524046,0.129983 -0.356124,0.110027 -0.569878,0.235494 -0.749231,0.439763 -0.253825,0.289087 -0.278652,0.38463 -0.251692,0.968669 0.03524,0.763271 0.660903,1.588516 1.403973,1.851815 0.428666,0.1519 1.271581,0.16259 1.796197,0.0228 z m 26.050515,-0.148391 c 0.205742,-0.08667 0.495375,-0.282678 0.64363,-0.43564 0.148255,-0.152953 0.29056,-0.278105 0.316237,-0.278105 0.02564,0 0.110544,0.118456 0.188588,0.263248 0.0781,0.144783 0.26397,0.346794 0.41318,0.448918 0.61524,0.42109 1.35001,0.30314 2.03998,-0.327449 0.37778,-0.345273 0.44439,-0.379685 0.48539,-0.250706 0.12648,0.397909 0.21335,0.527155 0.45792,0.681295 0.21731,0.13696 0.36076,0.16087 0.79849,0.13307 0.73524,-0.0467 1.39281,-0.404804 2.02947,-1.105251 l 0.48321,-0.531613 c -0.17391,0.474101 -0.37176,1.020605 -0.5353,1.499134 0.63841,6.7e-4 1.09816,-0.003 1.78194,-0.004 l 0.52547,-1.476708 c 0.80708,-2.268097 1.03034,-2.619091 1.76279,-2.771336 0.37065,-0.07701 0.40147,0.0774 0.15696,0.786529 -0.40504,1.160573 -0.80213,2.300664 -1.22127,3.468285 0.66782,-0.004 0.88042,-0.004 1.77298,-0.005 0.28726,-0.919586 0.50627,-1.558501 0.82747,-2.467659 0.2772,-0.407945 1.31898,-0.879388 1.31898,-0.580342 0,0.06056 -0.14752,0.507037 -0.32781,0.992232 -0.40888,1.100307 -0.47145,1.491835 -0.28409,1.777784 0.3943,0.601775 1.8234,0.565315 2.75887,-0.07032 0.15432,-0.10486 0.44383,-0.328192 0.42131,-0.279893 -0.0543,0.11652 -0.0795,0.161229 -0.13177,0.292808 -0.13212,0.33272 -0.11833,0.33622 0.82576,0.33622 h 0.91333 l 0.38837,-1.174476 0.38837,-1.174477 c 0.41352,0.007 0.89103,0.02102 1.29378,0.03234 -0.0418,0.140385 -0.0834,0.344734 -0.17395,0.656437 -0.17685,0.608549 -0.15895,0.97196 0.0667,1.354093 0.35173,0.595663 1.65043,0.612943 2.52587,0.03358 l 0.30618,-0.202623 0.21646,0.225947 c 0.28308,0.295469 0.69316,0.411169 1.4573,0.411169 0.74567,0 1.63869,-0.18887 2.19355,-0.463958 1.03526,-0.513255 1.5961,-1.52618 1.308,-2.362397 -0.1089,-0.316104 -0.10744,-0.321557 0.10073,-0.373322 0.11618,-0.02889 0.38437,-0.158779 0.59597,-0.288638 0.21161,-0.129859 0.38475,-0.213673 0.38475,-0.186255 0,0.02746 -0.1425,0.437142 -0.31666,0.910485 -0.45734,1.242966 -0.54908,1.751963 -0.38561,2.139272 0.17503,0.414633 0.56511,0.579103 1.22858,0.518003 0.69053,-0.0636 1.03706,-0.183455 1.45694,-0.503959 0.2019,-0.154111 0.37923,-0.28021 0.39407,-0.28021 0.0148,0 0.0706,0.145587 0.1239,0.323528 0.13819,0.461181 0.43511,0.597851 1.19327,0.549191 0.71003,-0.0455 1.31964,-0.325636 1.90502,-0.875215 l 0.39436,-0.370252 v 0.392552 c 0,0.47625 0.22725,0.749495 0.69654,0.837545 0.65443,0.12277 1.46972,-0.258606 2.28014,-1.066611 0.53195,-0.53035 0.57771,-0.634015 0.392,-0.887983 -0.10894,-0.148992 -0.13617,-0.135331 -0.58723,0.294377 -0.80486,0.766764 -1.32348,1.036392 -1.32348,0.688068 0.50786,-1.479258 1.02713,-2.936021 1.45466,-4.230107 -0.6018,-0.0011 -1.02532,-0.0033 -1.71815,9.49e-4 l -0.36646,0.941678 c -0.80137,2.059228 -0.82422,2.255039 -1.27925,2.74652 -0.6698,0.723512 -1.41173,1.034957 -1.41173,0.592658 0,-0.08208 0.32804,-1.054004 0.72898,-2.159764 0.40095,-1.10575 0.6569,-1.94886 0.72487,-2.133682 -0.5895,0.02015 -1.06747,0.0058 -1.72176,0.02328 -0.28755,0.767441 -0.57728,1.560485 -0.83448,2.30845 -0.27658,0.806101 -0.31952,0.876752 -0.823,1.353815 -0.75616,0.716481 -1.23354,0.914168 -1.23354,0.510796 0.52759,-1.521373 0.91394,-2.59843 1.45797,-4.175042 -0.63351,-0.01178 -1.17174,-0.0098 -1.77731,-0.0032 l -0.55088,0.518538 c -0.37752,0.355358 -0.7232,0.63899 -1.07374,0.808531 -0.48044,0.232366 -0.59026,0.253547 -1.25548,0.242172 -0.57699,-0.04106 -1.12902,-0.01336 -1.49846,0.30184 0.28106,-0.706665 0.44472,-1.134421 0.76587,-1.875488 -0.65698,-0.0019 -1.15217,-0.008 -1.843,0.0095 -0.40552,1.012899 -0.8305,2.019834 -1.19436,3.048455 -0.14658,0.417157 -0.3242,0.826125 -0.39473,0.908829 -0.26973,0.316314 -0.9799,0.567496 -1.09328,0.387309 -0.0596,-0.09479 0.0662,-0.49043 0.266,-1.111421 0.30719,-1.022892 0.71957,-2.200026 1.0691,-3.250106 -0.79083,0.0076 -1.13015,0.0078 -1.93052,0.02188 -0.20831,0.66148 -0.46349,1.398963 -0.67177,2.06045 -0.43655,-0.0062 -0.87849,-0.01646 -1.31131,-0.01403 0.25324,-0.688807 0.46721,-1.326758 0.71098,-2.047334 -0.73956,-0.0064 -1.02736,-0.005 -1.84426,0.0044 -0.36242,1.060545 -0.88444,2.701785 -1.09034,3.301983 l 0.36333,-0.365924 0.12637,0.180438 c 0.15668,0.22367 0.10943,0.316496 -0.42917,0.843144 l -0.41343,0.404261 0.16435,-0.477695 c 0.0904,-0.262731 0.16435,-0.495757 0.16435,-0.517837 0,-0.0221 -0.21064,0.160768 -0.46809,0.406337 -0.65481,0.624582 -1.17631,0.872791 -1.27785,0.608194 -0.0219,-0.05721 0.1287,-0.593902 0.33476,-1.192712 0.5135,-1.492265 0.44996,-1.900343 -0.3263,-2.09581 -0.57188,-0.143998 -1.40766,0.05998 -2.08935,0.509925 l -0.22242,0.146802 0.12983,-0.310737 c 0.19809,-0.474079 0.1902,-1.042361 -0.0174,-1.250112 -0.3449,-0.345244 -1.31647,-0.254781 -2.23875,0.208449 -0.23596,0.118522 -0.2589,0.137748 -0.38407,0.222048 0.0616,-0.182421 0.12562,-0.426001 0.17344,-0.594414 l -0.86695,0.02306 -0.86695,0.02306 c -0.32127,0.934756 -0.74515,2.218823 -1.00596,2.902272 -0.054,-0.07376 -0.28228,-0.115993 -0.32979,-0.09873 -0.0476,0.01722 -0.3642,0.349865 -0.70374,0.739106 -0.60358,0.691923 -0.93419,0.907164 -1.11527,0.726086 -0.0596,-0.0596 0.11453,-0.650069 0.57968,-1.965512 0.73576,-2.080743 0.73273,-1.932105 0.0439,-2.146237 -1.41567,-0.44005 -2.91393,-0.228061 -3.99073,0.564628 -0.73567,0.541562 -1.26559,1.322523 -1.482821,2.18525 -0.07299,0.289651 -0.192808,0.465124 -0.525346,0.769049 -0.757809,0.692593 -1.130854,0.618786 -1.589482,-0.314486 -0.456142,-0.928221 -0.462819,-0.85738 0.155335,-1.646701 0.443924,-0.566848 0.578997,-0.690622 0.710185,-0.650767 0.753045,0.228759 1.352033,0.02258 1.748869,-0.602005 l 0.24206,-0.380957 -0.711974,-0.04343 c -0.391584,-0.02392 -0.791588,-0.08773 -0.888891,-0.14175 -0.0973,-0.05405 -0.211271,-0.09828 -0.25325,-0.09828 -0.561892,0.682573 -0.957541,1.162684 -1.570732,1.939232 -0.0772,0.0067 -0.211395,-0.480115 -0.328329,-1.189995 l -0.09672,-0.587224 h -1.682833 l 0.05422,0.384735 c 0.06032,0.427977 0.459863,1.987621 0.638284,2.491596 0.107819,0.304547 0.103629,0.341513 -0.0669,0.590372 -0.748685,1.092634 -1.174212,1.081929 -1.174212,-0.02956 0,-0.262684 -0.03547,-0.440213 -0.08796,-0.440213 -0.412393,0.07727 -0.722454,0.169069 -1.145672,0.281845 l 0.04291,0.415732 c 0.08469,0.820614 0.57413,1.407387 1.174494,1.408077 0.386866,5.1e-4 0.639168,-0.158109 1.227716,-0.771498 0.287656,-0.299793 0.535938,-0.50629 0.55174,-0.458878 0.06723,0.201676 0.515622,0.744751 0.783786,0.949287 0.506865,0.386609 1.013384,0.416669 1.755475,0.104153 z M 124.0419,99.563025 c -0.23843,-0.08821 -0.22271,-0.445073 0.0567,-1.286954 0.2153,-0.648681 0.24612,-0.694439 0.58415,-0.86707 0.46103,-0.235447 0.68709,-0.230032 0.93963,0.02248 0.24921,0.249213 0.21785,0.492762 -0.15434,1.198538 -0.39078,0.741019 -0.95221,1.108305 -1.42616,0.932985 z M 101.64042,99.14251 c -0.1268,-0.0927 -0.14252,-0.184427 -0.10417,-0.607362 0.0932,-1.027916 0.85154,-2.136852 1.77776,-2.59969 0.45191,-0.225823 0.79374,-0.31399 0.79374,-0.204728 -0.20001,0.555648 -0.44383,1.131975 -0.65144,1.687197 -0.2821,0.756039 -0.82239,1.469171 -1.3003,1.716318 -0.27982,0.144696 -0.32796,0.145471 -0.51559,0.0086 z M 72.648193,94.975447 c 0.277926,-0.342585 1.478864,-0.92693 2.34068,-1.138919 1.149575,-0.282763 1.837914,-0.365248 3.094217,-0.370777 l 1.231257,-0.0057 0.246962,-0.690048 c 0.135828,-0.379521 0.246961,-0.716672 0.246961,-0.749227 0,-0.100393 -1.526747,-0.06544 -2.592441,0.05931 -1.890712,0.221336 -3.639497,0.780042 -4.201878,1.342422 -0.524755,0.524763 -0.984721,1.490295 -0.978953,2.054961 l 0.0026,0.250562 0.197077,-0.242995 c 0.108391,-0.133647 0.294492,-0.363076 0.41356,-0.509839 z m 37.941727,-0.584795 c 0.78736,-0.397459 1.41859,-0.50762 2.63013,-0.459002 0.57914,0.02325 1.12605,0.06534 1.21536,0.09347 0.13833,0.04362 0.20791,-0.04085 0.46977,-0.570004 0.16905,-0.341666 0.29168,-0.636914 0.27249,-0.656105 -0.0192,-0.01913 -0.28526,-0.07424 -0.59126,-0.122273 -0.67097,-0.105377 -1.9006,-0.03903 -2.62183,0.141368 -0.57867,0.144773 -1.67632,0.643324 -2.07984,0.944647 l -0.25738,0.192205 c 0.14212,0.231862 0.29767,0.46352 0.45632,0.679275 0.0124,2.49e-4 0.24022,-0.10929 0.50624,-0.243578 z m 25.20089,-0.330454 c 0.38563,-0.09838 1.02434,-0.539773 1.19002,-0.822384 0.12566,-0.214342 0.12239,-0.230606 -0.089,-0.441992 l -0.21946,-0.219461 -0.22441,0.214094 c -0.70525,0.672818 -1.80778,0.451664 -2.19861,-0.441016 l -0.13175,-0.300922 -0.537,0.522831 -0.537,0.522831 0.14057,0.26408 c 0.36953,0.69419 1.47266,0.991247 2.60664,0.701939 z"
     style="fill:#ffffff;fill-opacity:1;stroke-width:0.0214308;filter:url(#filter15464)"
     id="path331"
     inkscape:label="Velvet"
     sodipodi:nodetypes="ccccsssssscscsccsccsssssssssscscccccsccscccsssscccssscsscsscscsssssscssccscsssscssscccssssssssscccscccccssssssscccccsscsssssssscssscsscssssscccscsscccscccsscccccsscccccccccsscssscssscscsccccccssscscsssssccsccsccsscsccscsssccsssssssccsccscccsccssssccsccsscscccsccscsscsscccscc"
     transform="matrix(1.1002054,0,0,1.1002054,-64.378596,-75.634637)" />
  <path
     d="m 98.368783,125.50147 -0.0176,-2.06459 -0.653853,0.008 c -0.775082,0.009 -1.310481,-0.29274 -1.305147,-0.79109 0.02315,-4.76404 0.0065,-7.0818 -2.91e-4,-12.63474 0,-0.6453 0.803915,-0.6453 1.211927,-0.63586 h 0.764964 v -2.06545 -2.06546 h -4.454898 -4.454906 v 2.06546 2.06545 h 0.421894 c 0.381768,0 0.632715,0.18473 0.647259,0.64426 0.0064,0.20242 -0.02164,3.12779 -0.0197,6.50059 l 0.0035,6.13237 -1.620049,0.0235 -1.620049,0.0235 5.07e-4,-6.23687 c 2.52e-4,-3.95524 0.003,-6.25332 0.003,-6.44747 0,-0.37867 0.306846,-0.643 0.696465,-0.64655 l 0.312661,-0.003 v -2.05732 -2.02358 l -3.948665,-0.021 -3.948662,-0.0211 v 2.06623 2.06622 l 0.283076,0.002 c 0.408625,0.002 0.761393,0.25222 0.76958,0.62618 0.0048,0.21743 -4.26e-4,2.4113 -1.3e-4,6.43938 l 5.07e-4,6.21662 h -1.619946 -1.619965 l 0.002,-6.17613 c 0.0011,-3.39685 -0.01989,-6.28557 -0.01989,-6.46349 0,-0.36728 0.348314,-0.64271 0.738182,-0.65142 l 0.299214,-0.007 0.01468,-2.07302 0.02164,-2.04387 h -4.456446 -4.456296 v 2.06545 2.06546 h 0.764965 c 0.809619,-0.01 1.208255,0.23535 1.219492,0.63584 l 0.01456,5.61795 c 0.0118,4.55119 0.01086,6.29487 0.0069,6.98575 -0.0047,0.81591 -1.107775,0.81611 -1.441893,0.81603 l -0.604519,-1.5e-4 v 2.06328 2.02494 h 14.032947 14.032947 v -2.02494 z m 9.800787,-2.00358 -0.32708,-0.0439 c -0.71645,-0.0961 -0.92247,-0.48644 -0.68602,-1.29981 l 0.13362,-0.4596 c 1.93267,0 3.86534,0 5.798,0 l 0.0922,0.45899 c 0.21754,1.08323 0.11735,1.2821 -0.7469,1.28326 l -0.62344,8.3e-4 c 0.005,1.36293 0.005,2.72587 0.005,4.0888 2.96995,0 5.93988,0 8.90982,0 0.007,-1.36155 -0.0189,-2.72847 -0.0305,-4.08995 l -0.42123,0.0161 c -0.24961,0.01 -0.53956,-0.10416 -0.64686,-0.17446 -0.41957,-0.27492 -0.36596,-0.0942 -1.89975,-6.40294 -0.41158,-1.69286 -1.05088,-4.31721 -1.42068,-5.83188 -0.3698,-1.51467 -0.80365,-3.30068 -0.9641,-3.96892 -0.16044,-0.66823 -0.32845,-1.35165 -0.37334,-1.51871 l -0.0816,-0.30375 h -5.34276 -5.34277 v 2.06546 2.06545 h 0.68848 c 0.59829,0.004 1.11175,-0.01 0.96986,0.61106 -0.32029,1.27969 -0.7311,2.69487 -1.09026,4.00584 -1.56954,5.73139 -2.29786,8.33405 -2.40265,8.58582 -0.24711,0.59377 -0.72043,0.85471 -1.42554,0.85576 l -0.30016,0.003 c 0,1.34997 -0.004,2.73274 -0.004,4.08271 h 3.76642 3.76642 c -6e-5,-1.34288 -6e-5,-2.68577 -6e-5,-4.02865 z m 2.15665,-12.47124 c 0.56818,2.12868 1.05976,4.09566 1.57921,6.21103 -1.18936,0 -1.79767,0.002 -3.38542,0.002 0.62895,-2.07764 1.23614,-4.16389 1.80621,-6.21313 z m 22.58831,12.44991 h -0.67083 c -0.88412,0 -1.19299,-0.12761 -1.30757,-0.54026 -0.0574,-0.20679 -0.0863,-2.39931 -0.0866,-6.57607 l 0.0186,-6.34099 c 1.51429,0.002 2.26184,0.008 2.51584,1.43628 0.0696,0.39694 0.1503,0.96774 0.17925,1.26844 l 0.0526,0.54674 c 1.31868,0 2.63735,0 3.95603,0 0,-2.67323 0,-5.34646 0,-8.01969 -4.8734,0.0138 -9.74679,0.0276 -14.62019,0.0413 0,1.34997 0,2.69994 0,4.04991 l 0.81826,0.0405 c 0.9125,0.0451 1.03943,0.10572 1.16436,0.55551 0.11092,0.39932 0.1118,12.49922 9.6e-4,12.89832 -0.14058,0.50607 -0.31525,0.59571 -1.22237,0.62721 l -0.80167,0.0278 c 0,1.34491 0,2.68983 0,4.03473 h 5.00162 5.00166 c 4e-5,-1.34992 4e-5,-2.69985 4e-5,-4.04977 z"
     style="fill:#fff500;fill-opacity:1;stroke-width:0.0214308;filter:url(#filter15524)"
     id="path489"
     inkscape:label="Step"
     sodipodi:nodetypes="ccsccccccccccsssccccsscccccccsscccccsscccccccccssscccccccccscccsccccssssssccccccccscccccccccccsscccscccccssssccccc"
     transform="matrix(1.1002054,0,0,1.1002054,-64.378596,-75.634637)" />
</svg>
